<svg width="24" height="24" viewBox="0 0 6.35 6.35" xmlns:xlink="http://www.w3.org/1999/xlink" xmlns="http://www.w3.org/2000/svg">
    <defs>
        <linearGradient id="a">
            <stop style="stop-color:#208020;stop-opacity:1" offset="0"/>
        </linearGradient>
        <linearGradient xlink:href="#a" id="b" x1=".983" y1="3.165" x2="5.655" y2="3.165" gradientUnits="userSpaceOnUse" gradientTransform="matrix(.91897 0 0 .92966 .234 .205)"/>
    </defs>
    <path style="font-size:7.2254px;font-family:Gondoliere;-inkscape-font-specification:'Gondoliere, Normal';fill:#208020;stroke:url(#b);stroke-width:.287902;stroke-dasharray:none" d="m3.842.787-1.74 4.615.99-.161q.092-.014.146-.094.06-.081.086-.175l.08.027-.14.557-1.693.29 1.547-4.394-1.335-.087q-.146-.007-.232.148-.086.147-.106.329l-.133-.088.06-1.229Zm.923.208q-.007.222-.087.37-.073.148-.179.14-.1-.006-.172-.16-.074-.155-.08-.383 0-.235.08-.403.08-.168.192-.155.113.014.18.195.072.175.066.396zm.484 4.138-.006.08q-.007.075-.047.175-.033.101-.106.195-.066.088-.192.1-.133.021-.206-.026-.073-.054-.113-.12-.033-.068-.047-.128l-.006-.06V2.801q-.007-.148-.06-.275-.047-.134-.14-.134-.073 0-.119.08-.04.08-.06.181-.02.101-.026.182l-.007.08-.16-.094-.006-.14q0-.142.033-.31.04-.174.133-.309.1-.14.299-.134.18.007.279.12.1.108.146.243.053.134.066.248l.013.108-.08 2.566q-.006.094.027.168.04.067.113.053.067-.006.1-.094.04-.087.046-.154.014-.074.014-.087z" aria-label="Zi"/>
</svg>
